PathFileType	4	(X/Y/Z)	Patient4_TMGait_0pt7_02_left_18.trc.trc
DataRate	CameraRate	NumFrames	NumMarkers	Units	OrigDataRate	OrigDataStartFrame	OrigNumFrames
86.956521739130	86.956521739130	4	33	mm	86.956521739130	106	       141
Frame#	Time	Sacral			L.Shoulder			Chest			R.Shoulder			Neck			R.ASIS			L.ASIS			R.Thigh.Superior			R.Thigh.Lateral			R.Thigh.Inferior			R.Patella			L.Thigh.Superior			L.Thigh.Lateral			L.Thigh.Inferior			L.Patella			L.Shank.Superior			L.Shank.Lateral			L.Shank.Inferior			R.Shank.Superior			R.Shank.Lateral			R.Shank.Inferior			R.Heel			R.Midfoot.Superior			R.Midfoot.Lateral			R.Toe			L.Heel			L.Midfoot.Lateral			L.Midfoot.Superior			L.Toe			L.Elbow			L.Wrist			R.Elbow			R.Wrist			
		X1	Y1	Z1	X2	Y2	Z2	X3	Y3	Z3	X4	Y4	Z4	X5	Y5	Z5	X6	Y6	Z6	X7	Y7	Z7	X8	Y8	Z8	X9	Y9	Z9	X10	Y10	Z10	X11	Y11	Z11	X12	Y12	Z12	X13	Y13	Z13	X14	Y14	Z14	X15	Y15	Z15	X16	Y16	Z16	X17	Y17	Z17	X18	Y18	Z18	X19	Y19	Z19	X20	Y20	Z20	X21	Y21	Z21	X22	Y22	Z22	X23	Y23	Z23	X24	Y24	Z24	X25	Y25	Z25	X26	Y26	Z26	X27	Y27	Z27	X28	Y28	Z28	X29	Y29	Z29	X30	Y30	Z30	X31	Y31	Z31	X32	Y32	Z32	X33	Y33	Z33	

106	21.557500000000	812.047382538906	1019.310886713951	513.890987937447	1005.789376791997	1427.252874795213	301.373520001502	1123.199137851531	1350.530410846206	449.805262816196	1071.577830958677	1438.940550582163	629.245932735889	1035.081696934754	1489.581390105083	451.337266653183	1042.651619530602	941.620499957771	612.088500649787	1006.712642308894	959.072915975926	340.198942871127	1065.731268087948	737.793267169522	585.911100421264	976.167081000457	635.044745612364	645.142757108085	1047.666817955011	578.400216247506	563.445884165722	1041.342586953233	492.783014413428	567.708732704490	1102.453110211097	806.839585772539	372.300041544523	1080.197230162917	678.151363101035	286.675518537945	1192.227849853757	628.979073796718	347.673198927117	1219.276196666014	541.430512952939	336.757893244236	1162.870273110524	465.339957778629	330.587037527499	1028.993812808343	401.392380185470	283.688842251923	1038.424134668182	271.564296276041	338.018767701319	1013.334188089479	405.847534731578	573.442542845147	940.098195309905	301.504298074173	632.162566858440	983.081573144608	207.616655249089	566.380745322436	849.102540725504	43.311694741816	527.535747949857	1020.487164687678	97.579670614944	569.935717335930	930.365574386393	36.835029032809	604.191379135763	1138.881820484466	42.740071151450	600.402093139071	861.914670292640	179.357485122370	377.166216440979	924.726937740188	139.881745839035	297.612328940629	1027.681852443750	163.678758290762	317.812175171833	1120.536232974351	63.160713827680	292.223085273074	914.272880625537	1080.538145646541	210.937105792904	1013.712808930601	838.060515566525	210.730693908495	1109.807014927752	1101.011483685475	774.670208348782	1299.534609068480	927.639828772070	728.994068453267	
107	21.569000000000	811.278734240354	1019.607315428846	514.580535861199	1005.009084791073	1426.942346806394	301.842363442863	1123.105485392646	1350.145031457256	449.695699119776	1072.698335866045	1438.613060896157	629.385409350739	1035.083311942558	1489.290866416701	451.789081417165	1041.924920936697	941.434606183968	612.186767605503	1005.384974341844	958.829897042737	340.286949111822	1062.493699812648	737.043868630154	585.366598873754	972.209347255615	635.025407635165	645.461959134725	1042.486599673140	577.567066936320	563.556603282457	1035.207594656383	492.310086370790	567.917134916879	1101.815252813406	808.989446333511	372.981020282171	1082.100559248244	680.117722430985	286.860441777569	1194.254698357964	632.582841690070	348.468919391592	1223.308270534013	546.344362854955	337.309932975479	1170.406676823534	468.771812473388	330.772498877137	1040.348552615368	397.689145763495	283.723289464984	1057.334567780716	268.220594251203	337.553958419385	1006.853453405039	405.536582108336	573.599936442129	933.282986211475	301.499267512173	632.502376553520	975.647485395317	207.459338209906	566.489199390125	841.026765549862	43.372599005747	527.664459431982	1012.412656453161	97.510373924165	569.983698809385	922.282092981605	36.828290382194	604.253348788687	1130.783588747354	42.571609131321	600.449374704131	886.625007072959	165.635335551988	376.836912253296	951.291091375014	130.509252647888	296.744502722166	1052.796518953594	160.082447569944	316.798676199548	1151.265298716846	65.276131649638	290.087161971775	907.380633215079	1081.214534775615	213.742682632422	988.802897409004	831.930113386499	212.243907040700	1123.355259816649	1102.656732667257	773.863578251381	1322.644928174469	942.941359437748	721.675989839928	
108	21.580500000000	810.594841253381	1019.837186531041	515.058301620074	1004.406578222781	1426.587055452131	302.183688319857	1123.098181943123	1349.661108649959	449.489183544939	1073.830930816669	1438.190738345807	629.401069719114	1035.183009969482	1488.919882323280	452.135653444710	1041.216685376226	941.216188784502	612.228169220726	1004.270296901432	958.446214772767	340.246399489195	1059.336403755331	736.287506555006	584.903582194690	968.236345594506	634.996899220915	645.763070823545	1037.360664698792	576.731906383952	563.741455603756	1029.120690841566	491.830072268854	568.186110553226	1100.924348197946	810.507485235445	373.649424455731	1083.411846758521	681.484501493686	287.105120149030	1195.470369538027	635.303644712603	349.408980087870	1226.338153943044	550.520478894977	338.094851049291	1177.077867519988	471.733435814290	331.114532529355	1051.581220443529	393.543322974515	283.541646316340	1076.178833801655	264.897704017861	336.971214364444	1000.386072705796	405.228315281762	573.781860888727	926.462321066548	301.505037790385	632.856652321410	968.212474113851	207.320663744783	566.622845865685	832.960420537631	43.449526557925	527.814842174169	1004.353915399142	97.455537398753	570.051162170388	914.197139345320	36.819429445064	604.316877141335	1122.694060630344	42.404253742004	600.490739675249	912.053165585206	152.014055213347	375.944950613897	978.547404636527	121.441939372671	295.543964443550	1078.096402119388	156.829723276510	315.742283756468	1181.982459922006	68.231343792043	288.291982754086	900.489909978253	1082.186225653421	216.070178121087	964.392848525274	827.761584827399	213.931213929699	1136.436941825512	1104.641529323303	772.668303593433	1344.269734456958	959.378025228073	713.887680993630	
109	21.592000000000	810.018705326656	1020.003486952195	515.324786956484	1003.995289281202	1426.204558631063	302.392283368200	1123.179018506040	1349.085525673224	449.186155545735	1074.969430361826	1437.682997587441	629.288190237857	1035.388490938380	1488.480173497369	452.372327245263	1040.540632310545	940.980549253415	612.218749394466	1003.388141422667	957.919301433632	340.080252259459	1056.275052146164	735.519972971890	584.587401010707	964.216093848583	634.967399784561	646.047794628951	1032.279773860204	575.899894098391	564.021797131871	1023.067730870918	491.345249551955	568.515157309556	1099.817165257882	811.374985112152	374.289397028898	1084.115607181966	682.208680385285	287.395042105461	1195.893833015589	637.080457455683	350.446350277505	1228.372797456008	553.892520212844	339.100171337441	1182.849885189616	474.183809847554	331.629652486097	1062.664138632604	389.022183346988	283.119535092475	1094.792859547739	261.692885595980	336.319519254237	993.916514615259	404.934140154022	573.991093919494	919.615390312220	301.531013077566	633.213953170795	960.771012751747	207.208357741999	566.779747341432	824.898340627186	43.541738133563	527.979409239171	996.311578725763	97.416642159608	570.138204559673	906.108744452816	36.809450563074	604.378344434983	1114.612116624097	42.244138059428	600.529320868993	937.980681452545	138.716372432145	374.492351506165	1006.299593068547	112.869234782571	294.061224798301	1103.364943534114	154.054118838708	314.721639407565	1212.417513082892	72.142665741266	287.018128336934	893.629544561260	1083.478458017919	217.900737639870	940.820330408053	825.430105417749	215.791736890511	1149.010266975050	1106.913388210397	771.075293499002	1364.292061380142	976.793377934742	705.702073851104	
